#Comment line ignore any data following # character 
#Hierarchical Translation and Rotation (.htr) file 
[Header]	
#Header keywords are followed by a single value 
FileType HTR		#Single word string
DataType HTRS		#Translation followed by rotation and scale data
FileVersion 1		#integer
NumSegments 64		#integer
NumFrames 3		#integer
DataFrameRate 30		#integer, data frame rate in this file
EulerRotationOrder ZYX
CalibrationUnits mm
RotationUnits Degrees
GlobalAxisofGravity Y
BoneLengthAxis Y
ScaleFactor 1.00
[SegmentNames&Hierarchy]
#CHILD	PARENT
Pinger_Root GLOBAL
Pelvis Pinger_Root
L_Hip Pelvis
R_Hip Pelvis
Rear_Leg01 Pelvis
Spine1 Pelvis
L_Leg01 L_Hip
L_Leg02 L_Leg01
L_Leg03 L_Leg02
L_Foot L_Leg03
L_Toe1_01 L_Foot
L_Toe2_01 L_Foot
L_Toe3_01 L_Foot
planeAlignerLeft L_Foot
L_Toe1_02 L_Toe1_01
L_Toe1_03 L_Toe1_02
L_Toe2_02 L_Toe2_01
L_Toe2_03 L_Toe2_02
L_Toe3_02 L_Toe3_01
L_Toe3_03 L_Toe3_02
planeLockWeightLeft planeAlignerLeft
R_Leg01 R_Hip
R_Leg02 R_Leg01
R_Leg03 R_Leg02
R_Foot R_Leg03
planeAlignerRight R_Foot
R_Toe1_01 R_Foot
R_Toe2_01 R_Foot
R_Toe3_01 R_Foot
planeLockWeightRight planeAlignerRight
R_Toe1_02 R_Toe1_01
R_Toe1_03 R_Toe1_02
R_Toe2_02 R_Toe2_01
R_Toe2_03 R_Toe2_02
R_Toe3_02 R_Toe3_01
R_Toe3_03 R_Toe3_02
Rear_Leg02 Rear_Leg01
Rear_Leg03 Rear_Leg02
Rear_Leg04 Rear_Leg03
Rear_Foot Rear_Leg04
planeAlignerCenter Rear_Foot
Rear_Toe1_01 Rear_Foot
Rear_Toe2_01 Rear_Foot
Rear_Toe3_01 Rear_Foot
planeLockWeightCenter planeAlignerCenter
Rear_Toe1_02 Rear_Toe1_01
Rear_Toe1_03 Rear_Toe1_02
Rear_Toe2_02 Rear_Toe2_01
Rear_Toe2_03 Rear_Toe2_02
Rear_Toe3_02 Rear_Toe3_01
Rear_Toe3_03 Rear_Toe3_02
Back_Bone Spine1
Head Spine1
Motor_Bone Back_Bone
Ping_Mechanism Back_Bone
BN_LookIK Head
bottomMouth Head
L_Mouth01 Head
L_mouthFront Head
mouthGun Head
R_Mouth01 Head
R_mouthFront Head
TopMouth Head
weapon_bone Head
[BasePosition]
#SegmentName Tx, Ty, Tz, Rx, Ry, Rz, BoneLength
Pinger_Root 0.000000 0.000000 0.000000 -90.000000 0.000000 0.000000 10.000000 
Pelvis 0.000000 0.000000 0.000000 0.000000 0.000000 0.000000 10.000000 
L_Hip 0.000000 0.000000 0.000000 0.000000 0.000000 0.000000 10.000000 
R_Hip 0.000000 0.000000 0.000000 0.000000 0.000000 0.000000 10.000000 
Rear_Leg01 0.000000 0.000000 0.000000 0.000000 0.000000 0.000000 10.000000 
Spine1 0.000000 0.000000 0.000000 0.000000 0.000000 0.000000 10.000000 
L_Leg01 0.000000 0.000000 0.000000 0.000000 0.000000 0.000000 10.000000 
L_Leg02 0.000000 0.000000 0.000000 0.000000 0.000000 0.000000 10.000000 
L_Leg03 0.000000 0.000000 0.000000 0.000000 0.000000 0.000000 10.000000 
L_Foot 0.000000 0.000000 0.000000 0.000000 0.000000 0.000000 10.000000 
L_Toe1_01 0.000000 0.000000 0.000000 0.000000 0.000000 0.000000 10.000000 
L_Toe2_01 0.000000 0.000000 0.000000 0.000000 0.000000 0.000000 10.000000 
L_Toe3_01 0.000000 0.000000 0.000000 0.000000 0.000000 0.000000 10.000000 
planeAlignerLeft 0.000000 0.000000 0.000000 0.000000 0.000000 0.000000 10.000000 
L_Toe1_02 0.000000 0.000000 0.000000 0.000000 0.000000 0.000000 10.000000 
L_Toe1_03 0.000000 0.000000 0.000000 0.000000 0.000000 0.000000 10.000000 
L_Toe2_02 0.000000 0.000000 0.000000 0.000000 0.000000 0.000000 10.000000 
L_Toe2_03 0.000000 0.000000 0.000000 0.000000 0.000000 0.000000 10.000000 
L_Toe3_02 0.000000 0.000000 0.000000 0.000000 0.000000 0.000000 10.000000 
L_Toe3_03 0.000000 0.000000 0.000000 0.000000 0.000000 0.000000 10.000000 
planeLockWeightLeft 0.000000 0.000000 0.000000 0.000000 0.000000 0.000000 10.000000 
R_Leg01 0.000000 0.000000 0.000000 0.000000 0.000000 0.000000 10.000000 
R_Leg02 0.000000 0.000000 0.000000 0.000000 0.000000 0.000000 10.000000 
R_Leg03 0.000000 0.000000 0.000000 0.000000 0.000000 0.000000 10.000000 
R_Foot 0.000000 0.000000 0.000000 0.000000 0.000000 0.000000 10.000000 
planeAlignerRight 0.000000 0.000000 0.000000 0.000000 0.000000 0.000000 10.000000 
R_Toe1_01 0.000000 0.000000 0.000000 0.000000 0.000000 0.000000 10.000000 
R_Toe2_01 0.000000 0.000000 0.000000 0.000000 0.000000 0.000000 10.000000 
R_Toe3_01 0.000000 0.000000 0.000000 0.000000 0.000000 0.000000 10.000000 
planeLockWeightRight 0.000000 0.000000 0.000000 0.000000 0.000000 0.000000 10.000000 
R_Toe1_02 0.000000 0.000000 0.000000 0.000000 0.000000 0.000000 10.000000 
R_Toe1_03 0.000000 0.000000 0.000000 0.000000 0.000000 0.000000 10.000000 
R_Toe2_02 0.000000 0.000000 0.000000 0.000000 0.000000 0.000000 10.000000 
R_Toe2_03 0.000000 0.000000 0.000000 0.000000 0.000000 0.000000 10.000000 
R_Toe3_02 0.000000 0.000000 0.000000 0.000000 0.000000 0.000000 10.000000 
R_Toe3_03 0.000000 0.000000 0.000000 0.000000 0.000000 0.000000 10.000000 
Rear_Leg02 0.000000 0.000000 0.000000 0.000000 0.000000 0.000000 10.000000 
Rear_Leg03 0.000000 0.000000 0.000000 0.000000 0.000000 0.000000 10.000000 
Rear_Leg04 0.000000 0.000000 0.000000 0.000000 0.000000 0.000000 10.000000 
Rear_Foot 0.000000 0.000000 0.000000 0.000000 0.000000 0.000000 10.000000 
planeAlignerCenter 0.000000 0.000000 0.000000 0.000000 0.000000 0.000000 10.000000 
Rear_Toe1_01 0.000000 0.000000 0.000000 0.000000 0.000000 0.000000 10.000000 
Rear_Toe2_01 0.000000 0.000000 0.000000 0.000000 0.000000 0.000000 10.000000 
Rear_Toe3_01 0.000000 0.000000 0.000000 0.000000 0.000000 0.000000 10.000000 
planeLockWeightCenter 0.000000 0.000000 0.000000 0.000000 0.000000 0.000000 10.000000 
Rear_Toe1_02 0.000000 0.000000 0.000000 0.000000 0.000000 0.000000 10.000000 
Rear_Toe1_03 0.000000 0.000000 0.000000 0.000000 0.000000 0.000000 10.000000 
Rear_Toe2_02 0.000000 0.000000 0.000000 0.000000 0.000000 0.000000 10.000000 
Rear_Toe2_03 0.000000 0.000000 0.000000 0.000000 0.000000 0.000000 10.000000 
Rear_Toe3_02 0.000000 0.000000 0.000000 0.000000 0.000000 0.000000 10.000000 
Rear_Toe3_03 0.000000 0.000000 0.000000 0.000000 0.000000 0.000000 10.000000 
Back_Bone 0.000000 0.000000 0.000000 0.000000 0.000000 0.000000 10.000000 
Head 0.000000 0.000000 0.000000 0.000000 0.000000 0.000000 10.000000 
Motor_Bone 0.000000 0.000000 0.000000 0.000000 0.000000 0.000000 10.000000 
Ping_Mechanism 0.000000 0.000000 0.000000 0.000000 0.000000 0.000000 10.000000 
BN_LookIK 0.000000 0.000000 0.000000 0.000000 0.000000 0.000000 10.000000 
bottomMouth 0.000000 0.000000 0.000000 0.000000 0.000000 0.000000 10.000000 
L_Mouth01 0.000000 0.000000 0.000000 0.000000 0.000000 0.000000 10.000000 
L_mouthFront 0.000000 0.000000 0.000000 0.000000 0.000000 0.000000 10.000000 
mouthGun 0.000000 0.000000 0.000000 0.000000 0.000000 0.000000 10.000000 
R_Mouth01 0.000000 0.000000 0.000000 0.000000 0.000000 0.000000 10.000000 
R_mouthFront 0.000000 0.000000 0.000000 0.000000 0.000000 0.000000 10.000000 
TopMouth 0.000000 0.000000 0.000000 0.000000 0.000000 0.000000 10.000000 
weapon_bone 0.000000 0.000000 0.000000 0.000000 0.000000 0.000000 10.000000 
#Beginning of Data. Separated by tabs
#Fr	Tx	Ty	Tz	Rx	Ry	Rz	SF
[Pinger_Root]
29 0.000000 0.000000 0.000000 -0.000075 -0.000000 -0.000020 0.000000
30 0.000000 0.000000 0.000000 -0.000075 -0.000000 -0.000020 0.000000
31 0.000000 0.000000 0.000000 -0.000075 -0.000000 -0.000020 0.000000
[Pelvis]
29 68.875755 1051.308350 4334.838379 -76.492050 -80.367241 69.084175 4461.033203
30 72.227905 1034.119141 4345.670410 -84.005203 -76.861404 76.571121 4467.602051
31 74.904480 1011.688843 4337.590820 -86.679756 -73.803719 79.220070 4454.640137
[L_Hip]
29 5.766392 125.831482 872.656799 160.158691 -45.484905 122.312202 881.701050
30 5.766392 125.831482 872.656799 160.158691 -45.484913 122.312202 881.701050
31 5.766392 125.831482 872.656799 160.158691 -45.484894 122.312202 881.701050
[R_Hip]
29 5.765438 125.836372 -872.654907 38.087841 49.812687 125.703735 881.699829
30 5.765438 125.836372 -872.654907 38.087841 49.812698 125.703735 881.699829
31 5.765438 125.836372 -872.654907 38.087830 49.812672 125.703735 881.699829
[Rear_Leg01]
29 -192.298416 -925.602966 -0.001907 173.088593 7.582231 -145.061874 945.367432
30 -192.298416 -925.602966 -0.001907 172.364304 6.828002 -149.572586 945.367432
31 -192.298416 -925.602966 -0.001907 171.989563 6.419489 -153.253983 945.367432
[Spine1]
29 290.604584 5.007505 0.000477 6.094804 -3.611227 13.902589 290.647736
30 290.604584 5.007505 0.000477 6.438404 -2.543473 10.208196 290.647736
31 290.604584 5.007505 0.000477 6.612897 -2.141453 7.101853 290.647736
[L_Leg01]
29 761.932007 -0.002384 -0.069261 21.756418 -13.383512 -19.801281 761.932068
30 761.932007 -0.002384 -0.069261 18.301929 -16.504770 -10.996715 761.932068
31 761.932007 -0.002384 -0.069261 16.342855 -17.119787 -8.195346 761.932068
[L_Leg02]
29 1441.140503 -0.000954 -0.000715 3.572828 0.069817 -116.955704 1441.140503
30 1441.140503 -0.000954 -0.000715 3.067487 0.035297 -122.898491 1441.140503
31 1441.140503 -0.000954 -0.000715 3.245009 0.092196 -122.544632 1441.140503
[L_Leg03]
29 1686.963989 -0.000715 -0.000954 -0.051360 0.027080 124.784538 1686.963989
30 1686.963989 -0.000715 -0.000954 -0.049272 0.022252 123.743958 1686.963989
31 1686.963989 -0.000715 -0.000954 -0.055730 0.024816 124.840324 1686.963989
[L_Foot]
29 3041.570068 -30.715107 11.297464 2.074372 13.178351 51.057022 3041.746094
30 3041.570068 -30.715107 11.297464 1.787516 13.176300 52.547737 3041.746094
31 3041.570068 -30.715107 11.297464 1.841281 13.127173 51.289307 3041.746094
[L_Toe1_01]
29 -188.216690 -224.732346 -21.137953 94.268456 -7.000181 -178.712936 293.899567
30 -188.216690 -224.732346 -21.137953 94.278542 -6.858122 -178.740768 293.899567
31 -188.216690 -224.732346 -21.137953 94.300659 -6.856718 -179.061081 293.899567
[L_Toe2_01]
29 200.746536 -219.926590 148.838394 -91.899734 -28.118429 -46.622826 332.896027
30 200.746536 -219.926590 148.838394 -91.916992 -27.975327 -46.703911 332.896027
31 200.746536 -219.926590 148.838394 -92.029762 -28.066959 -46.354588 332.896027
[L_Toe3_01]
29 188.832520 -219.859131 -191.078659 -99.560837 15.677265 -61.285744 347.140900
30 188.832520 -219.859131 -191.078659 -99.631622 15.697570 -61.486397 347.140900
31 188.832520 -219.859131 -191.078659 -99.555336 15.813538 -61.037346 347.140900
[planeAlignerLeft]
29 31.513981 -489.492157 102.957687 169.306686 -76.298271 89.968506 501.194580
30 32.994991 -491.901825 101.105423 169.306686 -76.298271 89.968506 503.267700
31 32.993469 -485.871216 101.106796 169.306656 -76.298256 89.968506 497.375122
[L_Toe1_02]
29 413.761139 0.000477 0.000000 0.000203 -25.410625 -0.000182 413.761139
30 413.761139 0.000477 0.000000 0.000203 -25.410625 -0.000182 413.761139
31 413.761139 0.000477 0.000000 0.000203 -25.410625 -0.000182 413.761139
[L_Toe1_03]
29 464.317322 0.000358 -0.000089 0.004438 59.329147 0.004438 464.317322
30 464.317322 0.000358 -0.000089 0.004491 59.705135 0.004491 464.317322
31 464.317322 0.000358 -0.000089 0.004502 59.777927 0.004502 464.317322
[L_Toe2_02]
29 342.235809 -0.000477 0.000238 0.001200 -65.713669 0.001200 342.235809
30 342.235809 -0.000477 0.000238 0.001201 -65.466400 0.001201 342.235809
31 342.235809 -0.000477 0.000238 0.001200 -65.742928 0.001200 342.235809
[L_Toe2_03]
29 420.210846 -0.000715 0.000000 -0.001641 70.620415 -0.005188 420.210846
30 420.210846 -0.000715 0.000000 -0.001588 70.317680 -0.005137 420.210846
31 420.210846 -0.000715 0.000000 -0.001682 70.850883 -0.005228 420.210846
[L_Toe3_02]
29 329.270111 0.000954 0.000000 0.001179 -78.921326 0.001179 329.270111
30 329.270111 0.000954 0.000000 0.001179 -78.754898 0.001179 329.270111
31 329.270111 0.000954 0.000000 0.001179 -79.022301 0.001179 329.270111
[L_Toe3_03]
29 439.137451 -0.001907 0.000954 -179.990326 84.236938 -179.986832 439.137451
30 439.137451 -0.001907 0.000954 -179.989105 84.791473 -179.985611 439.137451
31 439.137451 -0.001907 0.000954 -179.990616 84.090309 -179.987091 439.137451
[planeLockWeightLeft]
29 999.998718 0.097961 0.076027 -0.011826 -0.004376 0.005620 999.998779
30 999.998718 0.097961 0.076027 -0.011826 -0.004376 0.005620 999.998779
31 999.998718 0.097961 0.076027 -0.011826 -0.004376 0.005620 999.998779
[R_Leg01]
29 761.455627 -0.001907 -0.000358 120.868217 -8.058969 28.869928 761.455688
30 761.455627 -0.001907 -0.000358 123.169006 -12.030615 27.813816 761.455688
31 761.455627 -0.001907 -0.000358 124.927170 -14.312782 26.323547 761.455688
[R_Leg02]
29 1441.140625 0.000000 -0.000238 -2.722481 -0.607214 -122.234558 1441.140625
30 1441.140625 0.000000 -0.000238 -1.676019 -0.384834 -122.000633 1441.140625
31 1441.140625 0.000000 -0.000238 -1.700129 -0.400198 -121.155754 1441.140625
[R_Leg03]
29 1686.963989 0.000954 0.001431 0.093623 -0.054181 135.253784 1686.963989
30 1686.963989 0.000954 0.001431 0.091796 -0.049495 135.120041 1686.963989
31 1686.963989 0.000954 0.001431 0.093466 -0.054452 135.585159 1686.963989
[R_Foot]
29 3041.560059 -30.531288 -11.204481 0.883855 -24.575136 56.141201 3041.734131
30 3041.560059 -30.531288 -11.204481 1.044160 -24.600620 55.381691 3041.734131
31 3041.560059 -30.531288 -11.204481 0.955281 -24.562820 54.232422 3041.734131
[planeAlignerRight]
29 -128.789368 -470.405334 -314.909882 -36.577137 -71.339012 -64.343925 580.548096
30 -127.138969 -472.901917 -312.871094 -36.577137 -71.339012 -64.343925 581.110046
31 -127.135620 -466.876373 -312.871552 -36.577114 -71.338966 -64.343903 576.216675
[R_Toe1_01]
29 -188.383347 -224.864899 21.052242 77.117065 0.297061 -173.925156 294.101532
30 -188.383347 -224.864899 21.052242 77.106445 0.099242 -173.918655 294.101532
31 -188.383347 -224.864899 21.052242 77.129066 0.083524 -174.265869 294.101532
[R_Toe2_01]
29 200.637817 -220.002121 -148.787384 -88.393204 35.760063 -51.472298 332.857574
30 200.637817 -220.002121 -148.787384 -88.350769 35.596981 -51.493103 332.857574
31 200.637817 -220.002121 -148.787384 -88.247086 35.725258 -51.233223 332.857574
[R_Toe3_01]
29 188.606735 -220.092957 191.126343 -72.869987 -9.022423 -66.783615 347.192566
30 188.606735 -220.092957 191.126343 -72.800156 -9.072607 -66.983177 347.192566
31 188.606735 -220.092957 191.126343 -72.802834 -9.163084 -66.650986 347.192566
[planeLockWeightRight]
29 999.999329 0.000000 0.076017 -0.011823 -0.004379 -0.000027 999.999329
30 999.999329 0.000000 0.076017 -0.011823 -0.004379 -0.000027 999.999329
31 999.999329 0.000000 0.076017 -0.011823 -0.004379 -0.000027 999.999329
[R_Toe1_02]
29 413.762085 0.000477 -0.000119 0.001384 -25.923025 0.001384 413.762085
30 413.762085 0.000477 -0.000119 0.001384 -25.925924 0.001384 413.762085
31 413.762085 0.000477 -0.000119 0.001384 -25.928823 0.001384 413.762085
[R_Toe1_03]
29 464.317810 0.000000 0.001088 0.003933 55.276833 0.003933 464.317810
30 464.317810 0.000000 0.001088 0.003965 55.569592 0.003965 464.317810
31 464.317810 0.000000 0.001088 0.003998 55.862335 0.003998 464.317810
[R_Toe2_02]
29 342.234741 -0.000954 0.000238 0.001220 -58.320431 0.001220 342.234741
30 342.234741 -0.000954 0.000238 0.001220 -58.133617 0.001220 342.234741
31 342.234741 -0.000954 0.000238 0.001219 -58.541428 0.001219 342.234741
[R_Toe2_03]
29 420.210846 0.000715 -0.000268 -0.003919 58.261944 -0.000284 420.210846
30 420.210846 0.000715 -0.000268 -0.003903 57.990364 -0.000266 420.210846
31 420.210846 0.000715 -0.000268 -0.003939 58.590588 -0.000307 420.210846
[R_Toe3_02]
29 329.270355 -0.000477 -0.000954 0.001187 -72.530754 0.001187 329.270355
30 329.270355 -0.000477 -0.000954 0.001188 -72.218246 0.001188 329.270355
31 329.270355 -0.000477 -0.000954 0.001187 -72.610512 0.001187 329.270355
[R_Toe3_03]
29 439.137939 0.000238 0.001431 0.011902 78.682426 0.011902 439.137939
30 439.137939 0.000238 0.001431 0.011251 78.025284 0.011251 439.137939
31 439.137939 0.000238 0.001431 0.012107 78.874397 0.012107 439.137939
[Rear_Leg02]
29 1162.777710 -0.029802 0.005960 0.320614 -3.003114 -92.885384 1162.777710
30 1162.777710 -0.029802 0.005960 0.215944 -3.019130 -90.892830 1162.777710
31 1162.777710 -0.029802 0.005960 0.151215 -3.020027 -89.631683 1162.777710
[Rear_Leg03]
29 607.192505 -0.013351 -0.073195 0.006508 -0.002006 62.473137 607.192505
30 607.192505 -0.013351 -0.073195 0.006522 -0.001960 61.665073 607.192505
31 607.192505 -0.013351 -0.073195 0.006531 -0.001931 61.153145 607.192505
[Rear_Leg04]
29 995.874512 -0.020504 -0.011921 -0.040028 -0.016409 54.691422 995.874573
30 995.874512 -0.020504 -0.011921 -0.039809 -0.016933 53.187588 995.874573
31 995.874512 -0.020504 -0.011921 -0.039667 -0.017264 52.232746 995.874573
[Rear_Foot]
29 3096.176270 -0.067472 -0.041425 -139.580826 85.881065 48.262676 3096.176270
30 3096.176270 -0.067472 -0.041425 -139.427719 85.873985 48.054577 3096.176270
31 3096.176270 -0.067472 -0.041425 -139.274597 85.866966 47.846546 3096.176270
[planeAlignerCenter]
29 1.039371 -16.898190 -673.812866 12.240772 -0.001473 179.998184 674.025513
30 1.038837 -15.213013 -676.041565 12.240773 -0.001473 179.998184 676.213501
31 1.038780 -15.212708 -670.012939 12.240772 -0.001473 179.998184 670.186462
[Rear_Toe1_01]
29 0.653352 83.966492 -371.173737 0.249149 36.306038 90.381935 380.553192
30 0.653352 83.966492 -371.173737 0.247939 36.515881 90.386841 380.553192
31 0.653352 83.966492 -371.173737 0.244498 36.074265 90.381821 380.553192
[Rear_Toe2_01]
29 178.200760 -294.826019 -362.060547 -8.016696 23.875170 -66.998909 499.765686
30 178.200760 -294.826019 -362.060547 -8.004119 24.065399 -66.969131 499.765686
31 178.200760 -294.826019 -362.060547 -8.034781 23.800808 -66.982056 499.765686
[Rear_Toe3_01]
29 -153.359680 -308.780914 -362.060852 3.655229 21.898653 -112.327438 499.952881
30 -153.359680 -308.780914 -362.060852 3.652115 22.117556 -112.353180 499.952881
31 -153.359680 -308.780914 -362.060852 3.664791 21.865816 -112.348801 499.952881
[planeLockWeightCenter]
29 1000.000000 0.000305 0.076256 -0.011814 -0.004373 -0.000015 1000.000000
30 1000.000000 0.000305 0.076256 -0.011814 -0.004373 -0.000015 1000.000000
31 1000.000000 0.000305 0.076256 -0.011814 -0.004373 -0.000015 1000.000000
[Rear_Toe1_02]
29 379.707825 0.194073 0.000477 -0.000292 -32.365021 0.006962 379.707855
30 379.707825 0.194073 0.000477 -0.000281 -32.211754 0.006956 379.707855
31 379.707825 0.194073 0.000477 -0.000292 -32.361122 0.006962 379.707855
[Rear_Toe1_03]
29 500.129700 0.165701 0.000119 0.000294 55.477901 0.007617 500.129761
30 500.129700 0.165701 0.000119 0.000207 54.747116 0.007545 500.129761
31 500.129700 0.165701 0.000119 0.000313 55.634407 0.007633 500.129761
[Rear_Toe2_02]
29 340.494507 0.000238 -0.000954 0.001243 -51.503105 0.001243 340.494507
30 340.494507 0.000238 -0.000954 0.001242 -51.712048 0.001242 340.494507
31 340.494507 0.000238 -0.000954 0.001242 -51.920979 0.001242 340.494507
[Rear_Toe2_03]
29 433.103577 0.000000 0.000238 0.003132 45.989765 0.003132 433.103546
30 433.103577 0.000000 0.000238 -0.003429 46.333820 0.000338 433.103546
31 433.103577 0.000000 0.000238 -0.003433 46.498943 0.000331 433.103546
[Rear_Toe3_02]
29 340.494141 -0.000358 -0.000477 -0.002504 -46.206512 -0.002504 340.494171
30 340.494141 -0.000358 -0.000477 -0.002500 -46.572392 -0.002500 340.494171
31 340.494141 -0.000358 -0.000477 -0.002499 -46.716095 -0.002499 340.494171
[Rear_Toe3_03]
29 433.103577 0.001431 -0.000238 0.000561 40.251293 -0.003293 433.103546
30 433.103577 0.001431 -0.000238 0.000548 40.630775 -0.003300 433.103546
31 433.103577 0.001431 -0.000238 0.000543 40.787354 -0.003303 433.103546
[Back_Bone]
29 1312.175781 -701.934692 0.000954 0.152694 0.063484 -85.984886 1488.125488
30 1312.175781 -701.934692 0.000954 0.000060 0.002346 -87.085167 1488.125488
31 1312.175781 -701.934692 0.000954 0.000030 0.002347 -88.518120 1488.125488
[Head]
29 1406.159424 809.709290 0.001431 -0.124125 -1.471922 9.768779 1622.625488
30 1406.159424 809.709290 0.001431 -0.055204 -1.472225 8.656370 1622.625488
31 1406.159424 809.709290 0.001431 0.070711 -1.468791 6.587636 1622.625488
[Motor_Bone]
29 1158.364380 -417.834747 0.000477 -0.274189 -0.102438 -112.829559 1231.419434
30 1158.364380 -417.834747 0.000477 -0.095385 0.076104 -105.915703 1231.419434
31 1158.364380 -417.834747 0.000477 -0.056910 0.119922 -107.082298 1231.419434
[Ping_Mechanism]
29 1257.710815 -450.079956 17.721573 0.000103 -0.000053 82.120995 1335.935059
30 1276.590576 -454.161377 15.456904 0.000103 -0.000053 82.120995 1355.059082
31 1292.752563 -455.213593 15.193262 0.000103 -0.000053 82.120995 1370.641968
[BN_LookIK]
29 193.241119 1380.371704 -0.002861 0.000000 89.965736 -31.038179 1393.832153
30 193.241119 1380.371704 -0.002861 0.000000 89.965736 -31.038179 1393.832153
31 193.241119 1380.371704 -0.002861 0.000000 89.965736 -31.038179 1393.832153
[bottomMouth]
29 -435.092926 615.759399 -0.000954 -0.000022 0.000016 73.527184 753.966492
30 -435.092926 615.759399 -0.000954 -0.000022 0.000016 73.527184 753.966492
31 -435.092926 615.759399 -0.000954 -0.000022 0.000016 73.527184 753.966492
[L_Mouth01]
29 554.440979 7.658243 838.222046 150.204178 23.759130 109.605339 1005.027161
30 554.440979 7.658243 838.222046 150.204178 23.759130 109.605339 1005.027161
31 554.440979 7.658243 838.222046 150.204178 23.759130 109.605339 1005.027161
[L_mouthFront]
29 551.629089 934.514771 339.150421 0.000081 2.804060 79.119301 1136.941284
30 551.629089 934.514771 339.150421 0.000081 2.804060 79.119301 1136.941284
31 551.629089 934.514771 339.150421 0.000081 2.804060 79.119301 1136.941284
[mouthGun]
29 55.332661 1627.420898 0.000000 0.000023 0.000009 -11.038128 1628.361328
30 55.332661 1627.420898 0.000000 0.000023 0.000009 -11.038128 1628.361328
31 55.332661 1627.420898 0.000000 0.000023 0.000009 -11.038128 1628.361328
[R_Mouth01]
29 554.442383 7.659197 -838.223938 29.795891 -23.759109 109.605331 1005.029541
30 554.442383 7.659197 -838.223938 29.795891 -23.759109 109.605331 1005.029541
31 554.442383 7.659197 -838.223938 29.795891 -23.759109 109.605331 1005.029541
[R_mouthFront]
29 551.629089 934.514282 -339.151367 0.000029 -2.803930 79.119133 1136.941162
30 551.629089 934.514282 -339.151367 0.000029 -2.803930 79.119133 1136.941162
31 551.629089 934.514282 -339.151367 0.000029 -2.803930 79.119133 1136.941162
[TopMouth]
29 461.269867 -56.106091 -0.008583 -0.000059 -0.000268 92.025169 464.669525
30 461.269867 -56.106091 -0.008583 -0.000059 -0.000268 92.025169 464.669525
31 461.269867 -56.106091 -0.008583 -0.000059 -0.000268 92.025169 464.669525
[weapon_bone]
29 -987.239868 1448.372803 0.001431 0.000000 89.965736 -31.038221 1752.833740
30 -987.239868 1448.372803 0.001431 0.000000 89.965736 -31.038221 1752.833740
31 -987.239868 1448.372803 0.001431 0.000000 89.965736 -31.038221 1752.833740
